<svg width="36" height="36" viewBox="0 0 36 36" fill="none" xmlns="http://www.w3.org/2000/svg">
<path fill-rule="evenodd" clip-rule="evenodd" d="M7.5 16.5C7.5 15.3181 7.73279 14.1478 8.18508 13.0558C8.63738 11.9639 9.30031 10.9718 10.136 10.136C10.9718 9.30031 11.9639 8.63738 13.0558 8.18508C14.1478 7.73279 15.3181 7.5 16.5 7.5C17.6819 7.5 18.8522 7.73279 19.9442 8.18508C21.0361 8.63738 22.0282 9.30031 22.864 10.136C23.6997 10.9718 24.3626 11.9639 24.8149 13.0558C25.2672 14.1478 25.5 15.3181 25.5 16.5C25.5 18.8869 24.5518 21.1761 22.864 22.864C21.1761 24.5518 18.8869 25.5 16.5 25.5C14.1131 25.5 11.8239 24.5518 10.136 22.864C8.44821 21.1761 7.5 18.8869 7.5 16.5ZM16.5 4.5C14.5903 4.50027 12.7082 4.95633 11.0102 5.83026C9.3122 6.70419 7.84729 7.97076 6.73723 9.52471C5.62716 11.0787 4.904 12.8751 4.62785 14.7647C4.35169 16.6544 4.53052 18.5826 5.14946 20.3893C5.76841 22.1959 6.8096 23.8287 8.1865 25.152C9.5634 26.4753 11.2363 27.4509 13.066 27.9977C14.8958 28.5444 16.8296 28.6466 18.7068 28.2957C20.584 27.9447 22.3503 27.1509 23.859 25.98L28.9395 31.0605C29.2224 31.3337 29.6013 31.4849 29.9946 31.4815C30.3879 31.4781 30.7641 31.3203 31.0422 31.0422C31.3203 30.7641 31.4781 30.3879 31.4815 29.9946C31.4849 29.6013 31.3337 29.2224 31.0605 28.9395L25.98 23.859C27.3571 22.0852 28.2089 19.9605 28.4385 17.7266C28.668 15.4928 28.2661 13.2393 27.2785 11.2225C26.2909 9.20566 24.7572 7.50644 22.8517 6.31804C20.9463 5.12964 18.7457 4.49975 16.5 4.5ZM16.5 22.5C18.0913 22.5 19.6174 21.8679 20.7426 20.7426C21.8679 19.6174 22.5 18.0913 22.5 16.5C22.5 14.9087 21.8679 13.3826 20.7426 12.2574C19.6174 11.1321 18.0913 10.5 16.5 10.5C14.9087 10.5 13.3826 11.1321 12.2574 12.2574C11.1321 13.3826 10.5 14.9087 10.5 16.5C10.5 18.0913 11.1321 19.6174 12.2574 20.7426C13.3826 21.8679 14.9087 22.5 16.5 22.5Z" fill="#ADA9A9"/>
</svg>
