<svg width="36" height="36" viewBox="0 0 36 36" fill="none" xmlns="http://www.w3.org/2000/svg">
<path d="M10.5 3H25.5C26.2956 3 27.0587 3.31607 27.6213 3.87868C28.1839 4.44129 28.5 5.20435 28.5 6V13.5H7.5V6C7.5 5.20435 7.81607 4.44129 8.37868 3.87868C8.94129 3.31607 9.70435 3 10.5 3ZM28.5 28.5C28.5 29.2956 28.1839 30.0587 27.6213 30.6213C27.0587 31.1839 26.2956 31.5 25.5 31.5V33H22.5V31.5H13.5V33H10.5V31.5C9.70435 31.5 8.94129 31.1839 8.37868 30.6213C7.81607 30.0587 7.5 29.2956 7.5 28.5V15H28.5V28.5ZM12 7.5V10.5H15V7.5H12ZM12 18V22.5H15V18H12Z" fill="#ADA9A9"/>
</svg>
